<svg xmlns="http://www.w3.org/2000/svg" viewBox="0 0 560 440" role="img" aria-labelledby="t d">
<title id="t">Fichas de arquivo sobrepostas com abas coloridas</title>
<desc id="d">Composição abstracta que sugere organização documental: três fichas sobrepostas, linhas de registo e uma marca de verificação.</desc>
<g transform="translate(40,90) rotate(-4 220 140)">
  <rect x="0" y="16" width="440" height="270" rx="14" fill="#e2f6f9" stroke="#2fb5c4" stroke-width="1"/>
  <rect x="28" y="0" width="82" height="24" rx="7" fill="#2fb5c4"/>
</g>
<g transform="translate(80,64) rotate(2.5 220 140)">
  <rect x="0" y="16" width="440" height="270" rx="14" fill="#fdeaf3" stroke="#e0508f" stroke-width="1"/>
  <rect x="170" y="0" width="82" height="24" rx="7" fill="#e0508f"/>
</g>
<g transform="translate(60,110)">
  <rect x="0" y="16" width="440" height="270" rx="14" fill="#ffffff" stroke="#e4eaf2" stroke-width="1.5"/>
  <rect x="310" y="0" width="96" height="26" rx="7" fill="#3569b8"/>
  <text x="330" y="18" font-family="ui-monospace,monospace" font-size="12" letter-spacing="2" fill="#ffffff">2026</text>
  <text x="32" y="60" font-family="ui-monospace,monospace" font-size="11" letter-spacing="2" fill="#e0508f">01</text>
  <line x1="66" y1="56" x2="330" y2="56" stroke="#e4eaf2" stroke-width="3" stroke-linecap="round"/>
  <text x="32" y="100" font-family="ui-monospace,monospace" font-size="11" letter-spacing="2" fill="#3569b8">02</text>
  <line x1="66" y1="96" x2="390" y2="96" stroke="#e4eaf2" stroke-width="3" stroke-linecap="round"/>
  <text x="32" y="140" font-family="ui-monospace,monospace" font-size="11" letter-spacing="2" fill="#2fb5c4">03</text>
  <line x1="66" y1="136" x2="280" y2="136" stroke="#e4eaf2" stroke-width="3" stroke-linecap="round"/>
  <line x1="66" y1="176" x2="350" y2="176" stroke="#eaf1fc" stroke-width="3" stroke-linecap="round"/>
  <line x1="32" y1="216" x2="408" y2="216" stroke="#e4eaf2" stroke-width="1"/>
  <circle cx="374" cy="246" r="14" fill="none" stroke="#2fb5c4" stroke-width="2.5"/>
  <path d="M367 246 l5 5 l10 -11" fill="none" stroke="#2fb5c4" stroke-width="2.5" stroke-linecap="round" stroke-linejoin="round"/>
  <text x="32" y="252" font-family="ui-monospace,monospace" font-size="11" letter-spacing="2" fill="#69758b">EM ORDEM</text>
</g>
</svg>
