<svg xmlns="http://www.w3.org/2000/svg" viewBox="0 0 560 440" role="img" aria-labelledby="t d">
<title id="t">Continuidade do acompanhamento</title>
<desc id="d">Linha temporal com três marcos ligados por um percurso tracejado, alternando fichas acima e abaixo da linha.</desc>
<path d="M62 96 Q28 210 76 318 Q126 428 288 420 Q452 412 508 306 Q556 200 486 108 Q416 20 282 32 Q136 22 62 96Z" fill="#eef3fb"/>

<path d="M74 232 H486" stroke="#3569b8" stroke-width="1.4" stroke-dasharray="4 6" fill="none" opacity=".5" stroke-linecap="round"/>

<!-- Marco · início da atividade -->
<g>
  <rect x="72" y="106" width="164" height="104" rx="16" fill="#fff" stroke="#e4eaf2"/>
  <rect x="92" y="98" width="46" height="14" rx="7" fill="#3569b8"/>
  <circle cx="112" cy="150" r="22" fill="#eaf1fc"/>
  <g stroke="#3569b8" stroke-width="2" fill="none" stroke-linecap="round" stroke-linejoin="round" transform="translate(101,139)">
    <path d="M3 2h11l7 7v13H3z"/><path d="M14 2v7h7"/>
  </g>
  <rect x="146" y="140" width="66" height="7" rx="3.5" fill="#e4eaf2"/>
  <rect x="146" y="155" width="44" height="7" rx="3.5" fill="#3569b8" opacity=".5"/>
  <rect x="92" y="184" width="124" height="7" rx="3.5" fill="#e4eaf2"/>
</g>
<path d="M154 210 V223" stroke="#3569b8" stroke-width="1.4" stroke-dasharray="4 6" opacity=".5" stroke-linecap="round"/>

<!-- Marco · constituição da empresa -->
<g>
  <rect x="198" y="256" width="164" height="104" rx="16" fill="#fff" stroke="#e4eaf2"/>
  <rect x="218" y="248" width="46" height="14" rx="7" fill="#2fb5c4"/>
  <circle cx="238" cy="300" r="22" fill="#e2f6f9"/>
  <g stroke="#2fb5c4" stroke-width="2" fill="none" stroke-linecap="round" stroke-linejoin="round" transform="translate(227,290)">
    <path d="M2 21V9h8v12"/><path d="M10 21V3h11v18"/><path d="M0 21h23"/>
  </g>
  <rect x="272" y="290" width="66" height="7" rx="3.5" fill="#e4eaf2"/>
  <rect x="272" y="305" width="44" height="7" rx="3.5" fill="#2fb5c4" opacity=".55"/>
  <rect x="218" y="334" width="124" height="7" rx="3.5" fill="#e4eaf2"/>
</g>
<path d="M280 241 V256" stroke="#2fb5c4" stroke-width="1.4" stroke-dasharray="4 6" opacity=".5" stroke-linecap="round"/>

<!-- Marco · acompanhamento continuado -->
<g>
  <rect x="324" y="106" width="164" height="104" rx="16" fill="#fff" stroke="#e4eaf2"/>
  <rect x="344" y="98" width="46" height="14" rx="7" fill="#e0508f"/>
  <circle cx="364" cy="150" r="22" fill="#fdeaf3"/>
  <g stroke="#e0508f" stroke-width="2" fill="none" stroke-linecap="round" stroke-linejoin="round" transform="translate(353,140)">
    <path d="M0 10h18"/><path d="M13 4l6 6-6 6"/>
  </g>
  <rect x="398" y="140" width="66" height="7" rx="3.5" fill="#e4eaf2"/>
  <rect x="398" y="155" width="44" height="7" rx="3.5" fill="#e0508f" opacity=".5"/>
  <rect x="344" y="184" width="124" height="7" rx="3.5" fill="#e4eaf2"/>
</g>
<path d="M406 210 V223" stroke="#e0508f" stroke-width="1.4" stroke-dasharray="4 6" opacity=".5" stroke-linecap="round"/>

<circle cx="154" cy="232" r="9" fill="#fff" stroke="#3569b8" stroke-width="2"/>
<circle cx="280" cy="232" r="9" fill="#fff" stroke="#2fb5c4" stroke-width="2"/>
<circle cx="406" cy="232" r="9" fill="#fff" stroke="#e0508f" stroke-width="2"/>
<circle cx="406" cy="232" r="3.6" fill="#e0508f"/>

<circle cx="512" cy="86" r="10" fill="none" stroke="#e0508f" stroke-width="1.4" opacity=".55"/>
<circle cx="46" cy="256" r="6" fill="#2fb5c4" opacity=".75"/>
<circle cx="520" cy="372" r="5" fill="#3569b8" opacity=".55"/>
<g fill="#3569b8" opacity=".3"><circle cx="266" cy="40" r="2"/><circle cx="280" cy="40" r="2"/><circle cx="294" cy="40" r="2"/><circle cx="266" cy="54" r="2"/><circle cx="280" cy="54" r="2"/><circle cx="294" cy="54" r="2"/></g>
</svg>
