<svg xmlns="http://www.w3.org/2000/svg" viewBox="0 0 560 440" role="img" aria-labelledby="t d">
<title id="t">Guias e respostas</title>
<desc id="d">Barra de pesquisa, pastas de documentos e cartão de perguntas frequentes ligados por linhas tracejadas.</desc>
<path d="M65 95 Q28 210 95 315 Q165 415 320 402 Q468 390 505 278 Q536 170 462 92 Q382 20 240 36 Q128 50 65 95Z" fill="#eef3fb"/>
<g stroke-width="1.4" stroke-dasharray="4 6" fill="none" opacity=".55">
  <path d="M280 118 C220 130 200 150 190 180" stroke="#3569b8"/>
  <path d="M330 120 C400 140 420 170 430 200" stroke="#e0508f"/>
  <path d="M240 330 C280 350 330 350 380 330" stroke="#2fb5c4"/>
</g>
<g>
  <rect x="120" y="72" width="320" height="52" rx="26" fill="#fff" stroke="#e4eaf2"/>
  <circle cx="152" cy="98" r="9" fill="none" stroke="#3569b8" stroke-width="2.2"/>
  <path d="M159 105l8 8" stroke="#3569b8" stroke-width="2.2" stroke-linecap="round"/>
  <rect x="180" y="93" width="180" height="10" rx="5" fill="#e4eaf2"/>
</g>
<g>
  <rect x="70" y="180" width="200" height="170" rx="16" fill="#fff" stroke="#e4eaf2"/>
  <rect x="94" y="204" width="100" height="9" rx="4.5" fill="#c9d4e4"/>
  <g>
    <path d="M94 240h20l6 7h26a6 6 0 0 1 6 6v22a6 6 0 0 1-6 6H94a6 6 0 0 1-6-6v-29a6 6 0 0 1 6-6z" fill="#3569b8"/>
    <path d="M170 240h20l6 7h26a6 6 0 0 1 6 6v22a6 6 0 0 1-6 6h-52a6 6 0 0 1-6-6v-29a6 6 0 0 1 6-6z" fill="#2fb5c4"/>
    <path d="M94 300h20l6 7h26a6 6 0 0 1 6 6v22a6 6 0 0 1-6 6H94a6 6 0 0 1-6-6v-29a6 6 0 0 1 6-6z" fill="#e0508f" opacity=".85"/>
    <rect x="168" y="302" width="80" height="9" rx="4.5" fill="#e4eaf2"/>
    <rect x="168" y="320" width="56" height="9" rx="4.5" fill="#e4eaf2"/>
  </g>
</g>
<g>
  <rect x="300" y="176" width="200" height="178" rx="16" fill="#fff" stroke="#e4eaf2"/>
  <circle cx="330" cy="206" r="14" fill="#fdeaf3"/>
  <path d="M326.5 202.5a4 4 0 0 1 7 2.6c0 2.4-3.5 2.6-3.5 5" stroke="#e0508f" stroke-width="1.9" fill="none" stroke-linecap="round"/>
  <circle cx="330" cy="214" r="1.3" fill="#e0508f"/>
  <rect x="354" y="200" width="120" height="9" rx="4.5" fill="#c9d4e4"/>
  <rect x="322" y="234" width="156" height="34" rx="10" fill="#eaf1fc"/>
  <rect x="334" y="247" width="96" height="8" rx="4" fill="#3569b8" opacity=".55"/>
  <path d="M462 250h10" stroke="#3569b8" stroke-width="2.2" stroke-linecap="round"/>
  <rect x="322" y="276" width="156" height="30" rx="10" fill="#fff" stroke="#e4eaf2"/>
  <rect x="334" y="287" width="88" height="8" rx="4" fill="#e4eaf2"/>
  <path d="M462 291h10M467 286v10" stroke="#69758b" stroke-width="2" stroke-linecap="round"/>
  <rect x="322" y="314" width="156" height="30" rx="10" fill="#fff" stroke="#e4eaf2"/>
  <rect x="334" y="325" width="72" height="8" rx="4" fill="#e4eaf2"/>
  <path d="M462 329h10M467 324v10" stroke="#69758b" stroke-width="2" stroke-linecap="round"/>
</g>
<g>
  <rect x="206" y="372" width="160" height="40" rx="20" fill="#fff" stroke="#e4eaf2"/>
  <circle cx="230" cy="392" r="11" fill="#e2f6f9"/>
  <path d="M230 385.5a4.4 4.4 0 0 1 2.4 8.1c-.7.5-.9 1-.9 1.9h-3c0-.9-.2-1.4-.9-1.9a4.4 4.4 0 0 1 2.4-8.1z" fill="none" stroke="#2fb5c4" stroke-width="1.6"/>
  <path d="M228.4 398h3.2" stroke="#2fb5c4" stroke-width="1.6" stroke-linecap="round"/>
  <rect x="250" y="388" width="96" height="8" rx="4" fill="#e4eaf2"/>
</g>
<circle cx="82" cy="60" r="5" fill="#2fb5c4" opacity=".8"/>
<circle cx="492" cy="66" r="9" fill="none" stroke="#e0508f" stroke-width="1.4" opacity=".6"/>
<circle cx="520" cy="330" r="5" fill="#3569b8" opacity=".55"/>
</svg>
