<svg xmlns="http://www.w3.org/2000/svg" viewBox="0 0 560 440" role="img" aria-labelledby="t d">
<title id="t">Situações fiscais de particulares</title>
<desc id="d">Ficha de declaração à esquerda, ligada por linha tracejada a um cartão de património e a um selo de mais-valias.</desc>
<path d="M68 90 Q24 202 70 312 Q116 424 280 418 Q448 412 506 308 Q558 204 488 106 Q418 20 282 30 Q140 20 68 90Z" fill="#eef3fb"/>

<g stroke="#3569b8" stroke-width="1.4" stroke-dasharray="4 6" fill="none" opacity=".5" stroke-linecap="round">
  <path d="M256 168 C300 168 306 148 330 142"/>
  <path d="M256 268 C304 278 314 300 336 312"/>
</g>

<!-- Ficha de declaração -->
<g>
  <rect x="58" y="96" width="198" height="248" rx="16" fill="#fff" stroke="#e4eaf2"/>
  <rect x="80" y="88" width="54" height="16" rx="8" fill="#3569b8"/>
  <circle cx="106" cy="148" r="26" fill="#eaf1fc"/>
  <g stroke="#3569b8" stroke-width="2" fill="none" stroke-linecap="round" stroke-linejoin="round" transform="translate(93,133)">
    <path d="M3 2h13l7 7v20H3z"/><path d="M16 2v7h7"/><path d="M9 18h9 M9 24h6"/>
  </g>
  <rect x="146" y="136" width="84" height="7" rx="3.5" fill="#e4eaf2"/>
  <rect x="146" y="152" width="58" height="7" rx="3.5" fill="#3569b8" opacity=".5"/>
  <rect x="80" y="200" width="154" height="7" rx="3.5" fill="#e4eaf2"/>
  <rect x="80" y="218" width="122" height="7" rx="3.5" fill="#e4eaf2"/>
  <g>
    <rect x="80" y="244" width="154" height="30" rx="9" fill="#f7f9fd"/>
    <rect x="94" y="256" width="60" height="6" rx="3" fill="#e4eaf2"/>
    <rect x="180" y="256" width="40" height="6" rx="3" fill="#3569b8" opacity=".4"/>
  </g>
  <g>
    <rect x="80" y="284" width="154" height="30" rx="9" fill="#f7f9fd"/>
    <rect x="94" y="296" width="46" height="6" rx="3" fill="#e4eaf2"/>
    <rect x="180" y="296" width="40" height="6" rx="3" fill="#2fb5c4" opacity=".45"/>
  </g>
</g>

<!-- Cartão de património -->
<g>
  <rect x="330" y="92" width="172" height="130" rx="16" fill="#fff" stroke="#e4eaf2"/>
  <rect x="352" y="84" width="54" height="16" rx="8" fill="#2fb5c4"/>
  <circle cx="378" cy="140" r="26" fill="#e2f6f9"/>
  <g stroke="#2fb5c4" stroke-width="2" fill="none" stroke-linecap="round" stroke-linejoin="round" transform="translate(364,127)">
    <path d="M1 12L14 2l13 10"/><path d="M5 12v14h18V12"/><path d="M12 26v-8h4v8"/>
  </g>
  <rect x="418" y="128" width="64" height="7" rx="3.5" fill="#e4eaf2"/>
  <rect x="418" y="144" width="42" height="7" rx="3.5" fill="#2fb5c4" opacity=".55"/>
  <rect x="352" y="188" width="128" height="7" rx="3.5" fill="#e4eaf2"/>
</g>

<!-- Selo de mais-valias -->
<g>
  <rect x="336" y="266" width="172" height="106" rx="16" fill="#fff" stroke="#e4eaf2"/>
  <circle cx="378" cy="310" r="26" fill="#fdeaf3"/>
  <g stroke="#e0508f" stroke-width="2" fill="none" stroke-linecap="round">
    <path d="M366 322 390 298"/><circle cx="369.5" cy="301.5" r="4.5"/><circle cx="386.5" cy="318.5" r="4.5"/>
  </g>
  <rect x="418" y="298" width="64" height="7" rx="3.5" fill="#e4eaf2"/>
  <rect x="418" y="314" width="42" height="7" rx="3.5" fill="#e0508f" opacity=".5"/>
  <rect x="360" y="346" width="124" height="7" rx="3.5" fill="#e4eaf2"/>
</g>

<circle cx="330" cy="142" r="4" fill="#2fb5c4"/>
<circle cx="336" cy="312" r="4" fill="#e0508f"/>

<circle cx="516" cy="252" r="10" fill="none" stroke="#e0508f" stroke-width="1.4" opacity=".5"/>
<circle cx="40" cy="240" r="6" fill="#2fb5c4" opacity=".75"/>
<circle cx="292" cy="398" r="5" fill="#3569b8" opacity=".55"/>
<g fill="#3569b8" opacity=".3"><circle cx="286" cy="44" r="2"/><circle cx="300" cy="44" r="2"/><circle cx="314" cy="44" r="2"/><circle cx="286" cy="58" r="2"/><circle cx="300" cy="58" r="2"/><circle cx="314" cy="58" r="2"/></g>
</svg>
