<svg xmlns="http://www.w3.org/2000/svg" viewBox="0 0 560 440" role="img" aria-labelledby="t d">
<title id="t">Glossário de conceitos</title>
<desc id="d">Campo de pesquisa no topo e um conjunto de fichas de definição sobrepostas, cada uma com marcador de área.</desc>
<path d="M60 100 Q26 214 74 322 Q122 430 284 422 Q450 414 506 304 Q556 196 484 104 Q412 18 278 30 Q132 24 60 100Z" fill="#eef3fb"/>

<!-- Pesquisa -->
<g>
  <rect x="112" y="66" width="336" height="52" rx="26" fill="#fff" stroke="#e4eaf2"/>
  <g stroke="#3569b8" stroke-width="2" fill="none" stroke-linecap="round">
    <circle cx="146" cy="90" r="9"/><path d="M153 97l7 7"/>
  </g>
  <rect x="176" y="86" width="180" height="8" rx="4" fill="#e4eaf2"/>
</g>

<g stroke="#3569b8" stroke-width="1.4" stroke-dasharray="4 6" fill="none" opacity=".5" stroke-linecap="round">
  <path d="M280 118 V158"/>
</g>

<!-- Ficha de definição · contabilidade -->
<g>
  <rect x="106" y="168" width="348" height="72" rx="16" fill="#fff" stroke="#e4eaf2"/>
  <rect x="130" y="160" width="52" height="16" rx="8" fill="#3569b8"/>
  <circle cx="152" cy="208" r="20" fill="#eaf1fc"/>
  <g stroke="#3569b8" stroke-width="2" fill="none" stroke-linecap="round" stroke-linejoin="round" transform="translate(143,199)">
    <path d="M2 3h10l5 5v11H2z"/><path d="M12 3v5h5"/>
  </g>
  <rect x="186" y="194" width="104" height="7" rx="3.5" fill="#e4eaf2"/>
  <rect x="186" y="210" width="216" height="6" rx="3" fill="#eef3fb"/>
  <rect x="186" y="222" width="164" height="6" rx="3" fill="#eef3fb"/>
</g>

<!-- Ficha de definição · fiscalidade -->
<g>
  <rect x="106" y="252" width="348" height="72" rx="16" fill="#fff" stroke="#e4eaf2"/>
  <rect x="130" y="244" width="52" height="16" rx="8" fill="#2fb5c4"/>
  <circle cx="152" cy="292" r="20" fill="#e2f6f9"/>
  <g stroke="#2fb5c4" stroke-width="2" fill="none" stroke-linecap="round">
    <path d="M144 300 160 284"/><circle cx="146.5" cy="286.5" r="3.6"/><circle cx="157.5" cy="297.5" r="3.6"/>
  </g>
  <rect x="186" y="278" width="88" height="7" rx="3.5" fill="#e4eaf2"/>
  <rect x="186" y="294" width="216" height="6" rx="3" fill="#eef3fb"/>
  <rect x="186" y="306" width="140" height="6" rx="3" fill="#eef3fb"/>
</g>

<!-- Ficha de definição · gestão -->
<g>
  <rect x="106" y="336" width="348" height="72" rx="16" fill="#fff" stroke="#e4eaf2"/>
  <rect x="130" y="328" width="52" height="16" rx="8" fill="#e0508f"/>
  <circle cx="152" cy="376" r="20" fill="#fdeaf3"/>
  <g stroke="#e0508f" stroke-width="2" fill="none" stroke-linecap="round" stroke-linejoin="round" transform="translate(143,368)">
    <path d="M1 16h18"/><path d="M3 12l5-6 4 4 7-8"/>
  </g>
  <rect x="186" y="362" width="96" height="7" rx="3.5" fill="#e4eaf2"/>
  <rect x="186" y="378" width="216" height="6" rx="3" fill="#eef3fb"/>
  <rect x="186" y="390" width="128" height="6" rx="3" fill="#eef3fb"/>
</g>

<circle cx="510" cy="88" r="10" fill="none" stroke="#e0508f" stroke-width="1.4" opacity=".55"/>
<circle cx="48" cy="270" r="6" fill="#2fb5c4" opacity=".75"/>
<circle cx="510" cy="382" r="5" fill="#3569b8" opacity=".55"/>
<g fill="#3569b8" opacity=".3"><circle cx="474" cy="180" r="2"/><circle cx="488" cy="180" r="2"/><circle cx="502" cy="180" r="2"/><circle cx="474" cy="194" r="2"/><circle cx="488" cy="194" r="2"/><circle cx="502" cy="194" r="2"/></g>
</svg>
