<svg xmlns="http://www.w3.org/2000/svg" viewBox="0 0 560 440" role="img" aria-labelledby="t d">
<title id="t">Plataformas e reconciliação</title>
<desc id="d">Três origens de movimentos à esquerda convergem, por linhas tracejadas, numa ficha de reconciliação à direita.</desc>
<path d="M64 92 Q22 204 68 314 Q114 424 278 418 Q446 412 508 310 Q560 206 490 108 Q420 20 284 30 Q138 22 64 92Z" fill="#eef3fb"/>

<g stroke="#3569b8" stroke-width="1.4" stroke-dasharray="4 6" fill="none" opacity=".5" stroke-linecap="round">
  <path d="M196 116 C244 128 250 178 288 194"/>
  <path d="M196 220 C240 220 250 216 288 214"/>
  <path d="M196 324 C244 312 250 262 288 236"/>
</g>

<!-- Origem · loja / marketplace -->
<g>
  <rect x="52" y="90" width="144" height="52" rx="14" fill="#fff" stroke="#e4eaf2"/>
  <circle cx="80" cy="116" r="17" fill="#eaf1fc"/>
  <g stroke="#3569b8" stroke-width="2" fill="none" stroke-linecap="round" stroke-linejoin="round" transform="translate(71,107)">
    <path d="M1 4h16v13H1z"/><path d="M1 8h16"/>
  </g>
  <rect x="106" y="106" width="72" height="7" rx="3.5" fill="#e4eaf2"/>
  <rect x="106" y="120" width="46" height="7" rx="3.5" fill="#3569b8" opacity=".5"/>
</g>

<!-- Origem · pagamentos -->
<g>
  <rect x="52" y="194" width="144" height="52" rx="14" fill="#fff" stroke="#e4eaf2"/>
  <circle cx="80" cy="220" r="17" fill="#fdeaf3"/>
  <g stroke="#e0508f" stroke-width="2" fill="none" stroke-linecap="round" stroke-linejoin="round" transform="translate(70,211)">
    <path d="M2 5h16v11H2z"/><path d="M2 9h16"/>
  </g>
  <rect x="106" y="210" width="72" height="7" rx="3.5" fill="#e4eaf2"/>
  <rect x="106" y="224" width="46" height="7" rx="3.5" fill="#e0508f" opacity=".5"/>
</g>

<!-- Origem · serviços remotos -->
<g>
  <rect x="52" y="298" width="144" height="52" rx="14" fill="#fff" stroke="#e4eaf2"/>
  <circle cx="80" cy="324" r="17" fill="#e2f6f9"/>
  <g stroke="#2fb5c4" stroke-width="2" fill="none" stroke-linecap="round" stroke-linejoin="round" transform="translate(71,315)">
    <circle cx="9" cy="9" r="8"/><path d="M1 9h16"/><path d="M9 1c4 4 4 12 0 16 -4-4-4-12 0-16"/>
  </g>
  <rect x="106" y="314" width="72" height="7" rx="3.5" fill="#e4eaf2"/>
  <rect x="106" y="328" width="46" height="7" rx="3.5" fill="#2fb5c4" opacity=".5"/>
</g>

<!-- Ficha de reconciliação -->
<g>
  <rect x="300" y="118" width="204" height="204" rx="16" fill="#fff" stroke="#e4eaf2"/>
  <rect x="322" y="110" width="54" height="16" rx="8" fill="#e0508f"/>
  <rect x="322" y="148" width="90" height="7" rx="3.5" fill="#e4eaf2"/>
  <g>
    <rect x="322" y="176" width="160" height="30" rx="9" fill="#f7f9fd"/>
    <circle cx="341" cy="191" r="6" fill="#3569b8" opacity=".55"/>
    <rect x="356" y="188" width="66" height="6" rx="3" fill="#e4eaf2"/>
    <rect x="440" y="188" width="30" height="6" rx="3" fill="#3569b8" opacity=".35"/>
  </g>
  <g>
    <rect x="322" y="214" width="160" height="30" rx="9" fill="#f7f9fd"/>
    <circle cx="341" cy="229" r="6" fill="#e0508f" opacity=".55"/>
    <rect x="356" y="226" width="52" height="6" rx="3" fill="#e4eaf2"/>
    <rect x="440" y="226" width="30" height="6" rx="3" fill="#e0508f" opacity=".35"/>
  </g>
  <g>
    <rect x="322" y="252" width="160" height="30" rx="9" fill="#eafaf8"/>
    <circle cx="341" cy="267" r="6" fill="#2fb5c4"/>
    <rect x="356" y="264" width="74" height="6" rx="3" fill="#cfeef1"/>
    <rect x="440" y="264" width="30" height="6" rx="3" fill="#2fb5c4" opacity=".5"/>
  </g>
  <path d="M322 298h160" stroke="#e4eaf2" stroke-width="1.6" stroke-linecap="round"/>
</g>

<!-- Confirmação de reconciliação -->
<g>
  <rect x="344" y="336" width="150" height="44" rx="22" fill="#fff" stroke="#e4eaf2"/>
  <circle cx="370" cy="358" r="13" fill="#2fb5c4"/>
  <path d="M364.5 358l4 4 7-8" stroke="#fff" stroke-width="2" fill="none" stroke-linecap="round" stroke-linejoin="round"/>
  <rect x="392" y="349" width="78" height="7" rx="3.5" fill="#e4eaf2"/>
  <rect x="392" y="362" width="52" height="7" rx="3.5" fill="#e4eaf2"/>
</g>

<circle cx="288" cy="194" r="4" fill="#3569b8"/>
<circle cx="288" cy="214" r="4" fill="#e0508f"/>
<circle cx="288" cy="236" r="4" fill="#2fb5c4"/>

<circle cx="516" cy="76" r="10" fill="none" stroke="#e0508f" stroke-width="1.4" opacity=".55"/>
<circle cx="40" cy="264" r="6" fill="#2fb5c4" opacity=".75"/>
<circle cx="522" cy="386" r="5" fill="#3569b8" opacity=".55"/>
<g fill="#3569b8" opacity=".3"><circle cx="238" cy="42" r="2"/><circle cx="252" cy="42" r="2"/><circle cx="266" cy="42" r="2"/><circle cx="238" cy="56" r="2"/><circle cx="252" cy="56" r="2"/><circle cx="266" cy="56" r="2"/></g>
</svg>
