<svg xmlns="http://www.w3.org/2000/svg" viewBox="0 0 560 440" role="img" aria-labelledby="t d">
<title id="t">Estrutura e evolução da empresa</title>
<desc id="d">Ficha de empresa à esquerda ligada a um gráfico de barras ascendente, com um cartão de validação de obrigações.</desc>
<path d="M66 88 Q24 200 68 312 Q114 424 276 418 Q444 412 506 312 Q560 208 492 112 Q424 22 288 30 Q140 20 66 88Z" fill="#eef3fb"/>

<g stroke="#3569b8" stroke-width="1.4" stroke-dasharray="4 6" fill="none" opacity=".5" stroke-linecap="round">
  <path d="M254 196 C286 196 296 232 322 244"/>
  <path d="M150 306 C150 340 190 352 226 352"/>
</g>

<!-- Ficha da empresa -->
<g>
  <rect x="58" y="112" width="196" height="182" rx="16" fill="#fff" stroke="#e4eaf2"/>
  <rect x="80" y="104" width="54" height="16" rx="8" fill="#3569b8"/>
  <circle cx="106" cy="164" r="28" fill="#eaf1fc"/>
  <g stroke="#3569b8" stroke-width="2" fill="none" stroke-linecap="round" stroke-linejoin="round" transform="translate(90,149)">
    <path d="M3 30V12h12v18"/><path d="M15 30V3h14v27"/><path d="M0 30h32"/><path d="M7 18h4 M20 10h4 M20 18h4"/>
  </g>
  <rect x="148" y="152" width="80" height="7" rx="3.5" fill="#e4eaf2"/>
  <rect x="148" y="168" width="56" height="7" rx="3.5" fill="#3569b8" opacity=".5"/>
  <rect x="80" y="214" width="152" height="7" rx="3.5" fill="#e4eaf2"/>
  <rect x="80" y="232" width="120" height="7" rx="3.5" fill="#e4eaf2"/>
  <rect x="80" y="250" width="88" height="7" rx="3.5" fill="#2fb5c4" opacity=".5"/>
</g>

<!-- Evolução da atividade -->
<g>
  <rect x="306" y="176" width="196" height="180" rx="16" fill="#fff" stroke="#e4eaf2"/>
  <rect x="330" y="200" width="66" height="7" rx="3.5" fill="#e4eaf2"/>
  <g>
    <rect x="332" y="286" width="26" height="38" rx="6" fill="#eaf1fc"/>
    <rect x="372" y="266" width="26" height="58" rx="6" fill="#3569b8" opacity=".35"/>
    <rect x="412" y="240" width="26" height="84" rx="6" fill="#2fb5c4" opacity=".55"/>
    <rect x="452" y="218" width="26" height="106" rx="6" fill="#3569b8"/>
  </g>
  <path d="M326 332h156" stroke="#e4eaf2" stroke-width="2" stroke-linecap="round"/>
  <path d="M338 262 L385 242 L425 220 L465 200" stroke="#e0508f" stroke-width="2" fill="none" stroke-linecap="round" stroke-linejoin="round" opacity=".75"/>
  <circle cx="465" cy="200" r="4.5" fill="#e0508f"/>
</g>

<!-- Obrigações validadas -->
<g>
  <rect x="226" y="330" width="150" height="44" rx="22" fill="#fff" stroke="#e4eaf2"/>
  <circle cx="252" cy="352" r="13" fill="#2fb5c4"/>
  <path d="M246.5 352l4 4 7-8" stroke="#fff" stroke-width="2" fill="none" stroke-linecap="round" stroke-linejoin="round"/>
  <rect x="274" y="343" width="80" height="7" rx="3.5" fill="#e4eaf2"/>
  <rect x="274" y="356" width="54" height="7" rx="3.5" fill="#e4eaf2"/>
</g>

<circle cx="254" cy="196" r="4" fill="#3569b8"/>
<circle cx="514" cy="80" r="10" fill="none" stroke="#e0508f" stroke-width="1.4" opacity=".55"/>
<circle cx="42" cy="242" r="6" fill="#2fb5c4" opacity=".75"/>
<circle cx="524" cy="392" r="5" fill="#3569b8" opacity=".55"/>
<g fill="#3569b8" opacity=".3"><circle cx="272" cy="36" r="2"/><circle cx="286" cy="36" r="2"/><circle cx="300" cy="36" r="2"/><circle cx="272" cy="50" r="2"/><circle cx="286" cy="50" r="2"/><circle cx="300" cy="50" r="2"/></g>
</svg>
