<svg xmlns="http://www.w3.org/2000/svg" viewBox="0 0 560 440" role="img" aria-labelledby="t d">
<title id="t">Rede de proximidade</title>
<desc id="d">Grupo de pessoas estilizadas ao centro, rodeado por cartões de valores e recomendações ligados por linhas tracejadas.</desc>
<path d="M70 100 Q30 220 100 320 Q170 415 320 405 Q470 395 505 280 Q535 170 460 90 Q380 20 240 35 Q130 48 70 100Z" fill="#eef3fb"/>
<g stroke-width="1.4" stroke-dasharray="4 6" fill="none" opacity=".55">
  <path d="M215 190 C160 170 150 150 140 130" stroke="#3569b8"/>
  <path d="M350 185 C400 160 410 150 425 135" stroke="#2fb5c4"/>
  <path d="M210 260 C160 280 150 292 135 305" stroke="#e0508f"/>
  <path d="M352 262 C400 285 410 295 428 308" stroke="#3569b8"/>
</g>
<circle cx="283" cy="225" r="95" fill="#fff" stroke="#e4eaf2"/>
<g>
  <circle cx="248" cy="212" r="16" fill="#2fb5c4"/>
  <path d="M224 262c3-20 45-20 48 0z" fill="#2fb5c4"/>
  <circle cx="318" cy="212" r="16" fill="#e0508f" opacity=".85"/>
  <path d="M294 262c3-20 45-20 48 0z" fill="#e0508f" opacity=".85"/>
  <circle cx="283" cy="198" r="20" fill="#3569b8"/>
  <path d="M252 262c4-26 58-26 62 0z" fill="#3569b8"/>
</g>
<circle cx="283" cy="308" r="17" fill="#fff" stroke="#e4eaf2"/>
<path d="M283 314c-6-4-9-8-9-11a4.6 4.6 0 0 1 9-1.6A4.6 4.6 0 0 1 292 303c0 3-3 7-9 11z" fill="#e0508f"/>
<g>
  <rect x="52" y="96" width="132" height="40" rx="12" fill="#fff" stroke="#e4eaf2"/>
  <circle cx="76" cy="116" r="12" fill="#eaf1fc"/>
  <path d="M76 109l2 4 4.5.5-3.3 3.1.9 4.4-4.1-2.3-4.1 2.3.9-4.4-3.3-3.1 4.5-.5z" fill="#3569b8"/>
  <rect x="96" y="112" width="72" height="8" rx="4" fill="#e4eaf2"/>
</g>
<g>
  <rect x="392" y="100" width="128" height="40" rx="12" fill="#fff" stroke="#e4eaf2"/>
  <circle cx="416" cy="120" r="12" fill="#e2f6f9"/>
  <circle cx="412" cy="118" r="3.4" fill="none" stroke="#2fb5c4" stroke-width="1.8"/>
  <circle cx="421" cy="122" r="3.4" fill="none" stroke="#2fb5c4" stroke-width="1.8"/>
  <rect x="436" y="116" width="68" height="8" rx="4" fill="#e4eaf2"/>
</g>
<g>
  <rect x="48" y="292" width="132" height="40" rx="12" fill="#fff" stroke="#e4eaf2"/>
  <circle cx="72" cy="312" r="12" fill="#fdeaf3"/>
  <circle cx="72" cy="312" r="5.5" fill="none" stroke="#e0508f" stroke-width="1.8"/>
  <path d="M72 308.5v3.5l2.4 1.6" stroke="#e0508f" stroke-width="1.8" fill="none" stroke-linecap="round"/>
  <rect x="92" y="308" width="72" height="8" rx="4" fill="#e4eaf2"/>
</g>
<g>
  <rect x="396" y="296" width="128" height="40" rx="12" fill="#fff" stroke="#e4eaf2"/>
  <circle cx="420" cy="316" r="12" fill="#eaf1fc"/>
  <path d="M420 308l6 2.6v4c0 4-2.6 6.6-6 8-3.4-1.4-6-4-6-8v-4z" fill="none" stroke="#3569b8" stroke-width="1.8" stroke-linejoin="round"/>
  <path d="M417 316l2.2 2.2 4-4.6" stroke="#3569b8" stroke-width="1.8" fill="none" stroke-linecap="round" stroke-linejoin="round"/>
  <rect x="440" y="312" width="68" height="8" rx="4" fill="#e4eaf2"/>
</g>
<g>
  <rect x="196" y="368" width="176" height="42" rx="12" fill="#fff" stroke="#e4eaf2"/>
  <g fill="#3569b8"><path d="M216 382l1.6 3.2 3.6.4-2.6 2.5.7 3.5-3.3-1.8-3.3 1.8.7-3.5-2.6-2.5 3.6-.4z"/><path d="M236 382l1.6 3.2 3.6.4-2.6 2.5.7 3.5-3.3-1.8-3.3 1.8.7-3.5-2.6-2.5 3.6-.4z"/><path d="M256 382l1.6 3.2 3.6.4-2.6 2.5.7 3.5-3.3-1.8-3.3 1.8.7-3.5-2.6-2.5 3.6-.4z"/><path d="M276 382l1.6 3.2 3.6.4-2.6 2.5.7 3.5-3.3-1.8-3.3 1.8.7-3.5-2.6-2.5 3.6-.4z"/><path d="M296 382l1.6 3.2 3.6.4-2.6 2.5.7 3.5-3.3-1.8-3.3 1.8.7-3.5-2.6-2.5 3.6-.4z"/></g>
  <circle cx="340" cy="389" r="11" fill="#2fb5c4"/>
  <path d="M335.5 389l3 3 5.5-6.4" stroke="#fff" stroke-width="2" fill="none" stroke-linecap="round" stroke-linejoin="round"/>
</g>
<circle cx="90" cy="55" r="5" fill="#e0508f" opacity=".7"/>
<circle cx="486" cy="52" r="9" fill="none" stroke="#2fb5c4" stroke-width="1.4" opacity=".6"/>
<circle cx="520" cy="220" r="5" fill="#3569b8" opacity=".55"/>
<g fill="#3569b8" opacity=".3"><circle cx="180" cy="46" r="2"/><circle cx="194" cy="46" r="2"/><circle cx="208" cy="46" r="2"/><circle cx="180" cy="60" r="2"/><circle cx="194" cy="60" r="2"/><circle cx="208" cy="60" r="2"/></g>
</svg>
